<?xml version="1.0" standalone="no"?><!DOCTYPE svg PUBLIC "-//W3C//DTD SVG 1.1//EN" "http://www.w3.org/Graphics/SVG/1.1/DTD/svg11.dtd"><svg t="1717571228400" class="icon" viewBox="0 0 1024 1024" version="1.1" xmlns="http://www.w3.org/2000/svg" p-id="12310" xmlns:xlink="http://www.w3.org/1999/xlink" width="200" height="200"><path d="M800.003219 0c9.73299 5.666994 12.732988 14.232986 12.232988 25.216975-0.666999 14.582986-0.167 29.199971-0.167 44.732957 4.232996 0.184 7.767992 0.483 11.283989 0.482999 23.665977 0.05 47.315954-0.05 70.982931 0.05 17.365983 0.083 23.682977 6.316994 23.682977 23.382977 0.017 137.632866 0.033 275.283731-0.05 412.916597 0 3.933996 0.4 9.232991-1.832999 11.499989-4.499996 4.616995-10.35099 9.76699-16.266984 10.666989-7.466993 1.149999-14.016986-3.966996-15.916984-12.199988-1.032999-4.482996-1.299999-9.232991-1.299999-13.849986-0.084-68.999933-0.05-137.982865-0.05-206.966798v-12.749988H36.168965v687.933329h12.832987c174.29983 0 348.60066 0 522.89949 0.033 4.648995 0 9.382991-0.017 13.933986 0.766999 9.198991 1.582998 13.948986 7.766992 14.032986 16.749984 0.083 9.115991-5.100995 14.966985-13.949986 16.999983-3.516997 0.799999-7.282993 0.549999-10.949989 0.549999-183.299821 0.033-366.599642-0.05-549.899463 0.184C14.087986 1006.416017 5.503995 1003.93302 0.004 993.999029V84.016918c4.549996-10.766989 13.266987-13.749987 24.166976-13.632987 23.249977 0.25 46.516955 0.083 69.766932 0.066h12.032989c0-16.132984 0.5-30.73297-0.167-45.282956C105.303897 14.199986 108.470894 5.749994 118.003885 0h133.999869c9.85099 4.883995 13.166987 12.982987 12.815987 23.683977-0.5 15.232985-0.133 30.48297-0.132999 46.232955H653.403362c0-15.699985 0.416-30.94997-0.134-46.149955C652.870362 12.982987 656.286359 4.999995 666.00335 0h133.999869zM35.920965 246.633759h845.898174V106.699896h-69.749932c0 15.666985 0.034 30.63297 0 45.582955-0.05 18.416982-5.532995 24.065976-23.632977 24.099977-36.999964 0.05-73.999928 0.05-110.999892 0-18.449982-0.017-23.916977-5.416995-24.016976-23.633977-0.083-15.249985-0.017-30.49997-0.017-46.249955H264.685742c0 16.033984 0.116 31.616969-0.033 47.199954-0.15 16.982983-5.883994 22.649978-22.966978 22.683978-37.332964 0.066-74.666927 0.05-111.999891 0-18.082982-0.034-23.666977-5.732994-23.699976-24.049977-0.033-15.216985-0.017-30.41697-0.017-45.732955h-70.049932c0.002 46.866954 0.002 93.083909 0.002 140.033863zM229.003776 140.866862v-104.599897h-86.898915v104.599897H229.003776z m547.049466-0.05V36.249965h-87.016915v104.566897h87.016915z" p-id="12311" fill="#515151"></path><path d="M792.003227 1023.999c-18.582982-4.749995-37.716963-7.999992-55.665946-14.499986-92.36691-33.482967-149.899854-133.882869-133.10087-230.732775 15.350985-88.482914 80.866921-157.049847 166.582837-174.315829 119.716883-24.115976 235.28377 57.949943 252.100754 178.966825 0.399 2.899997 1.382999 5.732994 2.082998 8.599992v39.98296c-1.648998 8.449992-2.898997 16.999983-5.032995 25.333976-21.799979 84.849917-74.832927 138.865864-159.799844 161.065842-8.933991 2.332998-18.100982 3.766996-27.166973 5.599995l-39.999961-0.001z m196.433808-211.398794c0.483-97.016905-77.949924-176.100828-175.349829-176.816827-97.350905-0.698999-177.017827 78.350923-177.300827 175.933828-0.283 97.199905 77.800924 175.849828 175.433829 176.732828 97.282905 0.864999 176.749827-77.983924 177.216827-175.849829z" p-id="12312" fill="#515151"></path><path d="M476.770534 882.100139H124.337879V371.433637H793.803225V564.799448H476.770534v317.300691z m-36.032964-352.883656v-122.49988h-122.249881v122.49988h122.249881z m36.399964-122.84988v122.84988H599.453415v-122.84988H477.137534z m-317.38369 0.033v122.84988h121.866881V406.399603H159.753844z m476.716534 0.117V529.049483h122.249881V406.516603h-122.249881zM281.953725 565.683448H159.569844v121.99988H281.953725v-121.99988z m36.499964-0.184v122.35088H440.903569V565.499448H318.453689zM159.470844 724.383293v122.54988h122.266881v-122.54988H159.470844z m159.016845-0.134v122.41688h122.249881V724.249293h-122.249881zM829.90419 794.333224c27.632973 0 53.898947-0.017 80.165921 0.017 16.683984 0.017 25.232975 5.849994 25.550975 17.398983 0.333 11.833988-8.600992 18.149982-25.766975 18.149983-30.63397 0.017-61.26694 0.066-91.89991-0.017-17.115983-0.033-23.532977-6.383994-23.582977-23.516977-0.101-31.633969-0.051-63.266938-0.033-94.899908 0.017-7.899992 1.148999-15.365985 8.715992-19.96698 12.633988-7.699992 26.550974 1.266999 26.766974 17.699982 0.301 24.299976 0.084 48.599953 0.084 72.916929l-0.001 12.217988z" p-id="12313" fill="#515151"></path></svg>