<?xml version="1.0" standalone="no"?><!DOCTYPE svg PUBLIC "-//W3C//DTD SVG 1.1//EN" "http://www.w3.org/Graphics/SVG/1.1/DTD/svg11.dtd"><svg t="1717571188967" class="icon" viewBox="0 0 1024 1024" version="1.1" xmlns="http://www.w3.org/2000/svg" p-id="10150" xmlns:xlink="http://www.w3.org/1999/xlink" width="200" height="200"><path d="M769.485841 957.246667 254.429225 957.246667c-31.605835 0-57.226353-25.563212-57.226353-57.0616L197.202872 211.186863c0-31.498388 25.620517-57.065693 57.226353-57.065693l143.074579 0 0 59.45102L283.033703 213.57219c-15.783475 0-28.605501 12.803607-28.605501 28.570709l0 629.511367c0 15.766079 12.821003 28.5308 28.605501 28.5308l457.831286 0c15.801894 0 28.620851-12.764722 28.620851-28.5308L769.485841 242.142899c0-15.767102-12.817933-28.570709-28.620851-28.570709L626.411261 213.57219l0-59.45102 143.074579 0c31.605835 0 57.228399 25.567305 57.228399 57.065693L826.71424 900.185067C826.71424 931.682431 801.091676 957.246667 769.485841 957.246667zM397.503804 384.766201l314.755684 0 0 28.566616L397.503804 413.332816 397.503804 384.766201zM397.503804 470.39851l314.755684 0 0 28.496008L397.503804 498.894518 397.503804 470.39851zM397.503804 555.955094l314.755684 0 0 28.570709L397.503804 584.525804 397.503804 555.955094zM397.503804 641.588427l314.755684 0 0 28.5308L397.503804 670.119227 397.503804 641.588427zM712.259488 841.34803 397.503804 841.34803l0-28.566616 314.755684 0L712.259488 841.34803zM397.503804 727.219713l314.755684 0 0 28.494984L397.503804 755.714697 397.503804 727.219713zM311.657624 384.188033l28.620851 0 0 28.5308-28.620851 0L311.657624 384.188033zM311.657624 469.784526l28.620851 0 0 28.5308-28.620851 0L311.657624 469.784526zM311.657624 555.376926l28.620851 0 0 28.535917-28.620851 0L311.657624 555.376926zM311.657624 641.009236l28.620851 0 0 28.496008-28.620851 0L311.657624 641.009236zM340.277452 840.734046l-28.620851 0 0-28.531823 28.620851 0L340.277452 840.734046zM311.657624 726.57196l28.620851 0 0 28.564569-28.620851 0L311.657624 726.57196zM683.63659 243.878426c15.803941 0 28.622898 12.798491 28.622898 28.565593s0 55.256488 0 55.256488L311.657624 327.700507c0 0 0-39.489386 0-55.256488s12.818957-28.565593 28.620851-28.565593l85.831854 0c0 0 0.361227-40.576137 0.361227-86.933955 0-48.168046 37.193087-88.415702 85.488023-88.415702 48.293913 0 86.807065 42.346457 86.807065 88.705298 0 49.903573-0.958838 86.644359-0.958838 86.644359L683.63659 243.878426zM511.958556 154.12117c-15.802918 0-28.605501 12.803607-28.605501 28.570709 0 15.691377 12.802584 28.494984 28.605501 28.494984 15.800871 0 28.602432-12.803607 28.602432-28.494984C540.560988 166.924777 527.759427 154.12117 511.958556 154.12117z" fill="#515151" p-id="10151"></path></svg>