<?xml version="1.0" standalone="no"?><!DOCTYPE svg PUBLIC "-//W3C//DTD SVG 1.1//EN" "http://www.w3.org/Graphics/SVG/1.1/DTD/svg11.dtd"><svg t="1717575820624" class="icon" viewBox="0 0 1097 1024" version="1.1" xmlns="http://www.w3.org/2000/svg" p-id="22223" xmlns:xlink="http://www.w3.org/1999/xlink" width="214.2578125" height="200"><path d="M1047.698 464.677c26.953 0 48.823 21.833 48.823 48.75V963.62c0 26.88-21.906 48.713-48.823 48.713h-48.896v-0.659a30.647 30.647 0 0 0 30.72-30.646V495.36a30.793 30.793 0 0 0-30.72-30.683h48.896zM404.443 346.514c17.043 0 32.11 8.814 40.85 22.053l59.137 75.3 1.828 2.378c9.326 11.446 23.333 18.87 39.059 18.87h367.506a48.823 48.823 0 0 1 55.296 48.275v450.23a48.786 48.786 0 0 1-56.869 48.019H404.37v0.658H50.36a48.75 48.75 0 0 1-48.823-48.713H0.622V513.39h0.914V395.264c0-26.88 21.87-48.713 48.823-48.713l354.084-0.037z m337.445 57.088H545.243a50.834 50.834 0 0 1-38.875-19.2l-1.682-2.157-59.136-75.301a48.896 48.896 0 0 0-47.177-21.65H100.498V71.35a48.64 48.64 0 0 1 47.653-59.685h544.804c26.954 0 48.823 21.833 48.896 48.713v12.544h79.58c26.953 0 48.823 21.834 48.823 48.787v281.746h-67V121.6a30.647 30.647 0 0 0-30.72-30.574h-30.683v312.576h0.037z m208.091-269.458c26.954 0 48.823 21.833 48.823 48.786v220.526h-66.999V182.857a30.647 30.647 0 0 0-30.72-30.574h-30.72v-18.139h79.616z m-336.384 61.22l-385.974 0.074a30.647 30.647 0 0 0 0 61.184h386.011a30.683 30.683 0 1 0-0.037-61.257z m-0.182-122.44H227.365a30.647 30.647 0 0 0 0 61.22h386.048a30.683 30.683 0 1 0 0-61.22z" fill="#ffffff" p-id="22224"></path></svg>