<?xml version="1.0" standalone="no"?><!DOCTYPE svg PUBLIC "-//W3C//DTD SVG 1.1//EN" "http://www.w3.org/Graphics/SVG/1.1/DTD/svg11.dtd"><svg t="1717406471975" class="icon" viewBox="0 0 1503 1024" version="1.1" xmlns="http://www.w3.org/2000/svg" p-id="13351" xmlns:xlink="http://www.w3.org/1999/xlink" width="293.5546875" height="200"><path d="M1099.182891 237.627604h-600.560027c-10.385625-46.73531-15.46555-77.666409-15.465549-82.859221 0-25.851174-15.46555-41.316724-31.269761-51.589461-15.46555-5.192812-25.851174-5.192812-31.269761-5.192812h-57.008048c-15.46555 0-25.851174 10.272737-25.851174 25.851174 0 15.46555 10.272737 25.851174 25.851174 25.851174h62.20086s5.192812 0 5.192812 10.272737c5.192812 31.269761 82.859222 522.78073 88.052034 554.050491 0 5.192812 5.192812 15.46555 10.272738 31.26976 15.46555 15.46555 31.269761 31.269761 67.167897 31.269761H1078.07298c15.46555 0 25.851174-10.272737 25.851174-25.851174 0-15.46555-10.272737-25.851174-25.851174-25.851174H597.060523c-5.192812 0-15.46555 0-20.884137-5.192812l-5.192812-5.192813v-5.192812s-5.192812-20.884136-10.272737-51.702348h476.045419c41.316724 0 67.167898-20.884136 77.66641-57.008048l51.589461-295.087201v-4.967037c0.564436-31.834197-30.47955-62.878183-66.829236-62.878184z m-69.199868 581.256312c-29.576452 0-53.508544 23.932091-53.508544 53.508543s23.932091 53.508544 53.508544 53.508544S1083.717341 901.968912 1083.717341 872.392459c0.225774-29.463565-23.932091-53.508544-53.734318-53.508543z m-429.648771 0c-29.576452 0-53.508544 23.932091-53.508544 53.508543s23.932091 53.508544 53.508544 53.508544 53.508544-23.932091 53.508544-53.508544c0.225774-29.463565-23.706317-53.508544-53.508544-53.508543z m0 0" fill="" p-id="13352" style="fill: white;"></path></svg>