<?xml version="1.0" standalone="no"?>
<!DOCTYPE svg PUBLIC "-//W3C//DTD SVG 1.1//EN" "http://www.w3.org/Graphics/SVG/1.1/DTD/svg11.dtd">
<svg t="1717411541672" class="icon" viewBox="0 0 1024 1024" version="1.1" xmlns="http://www.w3.org/2000/svg" p-id="28296" xmlns:xlink="http://www.w3.org/1999/xlink" width="200" height="200">
    <g transform="rotate(90, 512, 512)">
        <path d="M340.928 403.2a32 32 0 0 1 0 45.248l-31.616 31.552h420.8l-31.552-31.552a32 32 0 0 1-3.712-40.832l3.712-4.48a32 32 0 0 1 45.248 0l89.92 89.984a32 32 0 0 1 0 45.248l-96.32 96.32a32 32 0 0 1-45.248 0l-3.712-4.416a32 32 0 0 1 3.712-40.832l45.44-45.44H301.824l45.504 45.44a32 32 0 0 1 3.712 40.832l-3.712 4.48a32 32 0 0 1-45.248 0L205.76 538.304a32 32 0 0 1 0-45.248L295.68 403.2a32 32 0 0 1 45.248 0zM78.4 87.424a41.6 41.6 0 0 1 41.6 41.6V902.4a41.6 41.6 0 1 1-83.2 0V129.024a41.6 41.6 0 0 1 41.6-41.6z m851.2 0a41.6 41.6 0 0 1 41.6 41.6V902.4a41.6 41.6 0 1 1-83.2 0V129.024a41.6 41.6 0 0 1 41.6-41.6z" fill="#45474D" p-id="28297"></path>
    </g>
</svg>
