<?xml version="1.0" standalone="no"?><!DOCTYPE svg PUBLIC "-//W3C//DTD SVG 1.1//EN" "http://www.w3.org/Graphics/SVG/1.1/DTD/svg11.dtd"><svg t="1717411333476" class="icon" viewBox="0 0 1024 1024" version="1.1" xmlns="http://www.w3.org/2000/svg" p-id="22714" xmlns:xlink="http://www.w3.org/1999/xlink" width="200" height="200"><path d="M439.416471 594.522353l39.213176 39.213176-216.967529 216.847059 113.664 0.060236v60.235294H162.273882v-227.448471h60.235294v128l216.907295-216.847059z m204.679529 0l216.847059 216.907294v-128h60.235294l0.060235 197.330824v30.117647h-213.172706v-60.235294h113.724236l-216.907294-216.847059 39.152941-39.273412z m277.142588-442.608941v198.77647h-60.235294v-99.388235l-216.907294 217.027765-39.213176-39.213177 216.907294-216.967529h-113.724236v-60.235294h213.232942z m-545.91247 0v60.235294H261.662118l216.967529 216.967529-39.152941 39.152941-216.96753-216.967529v99.388235h-60.235294v-198.77647h213.052236z" fill="#000000" p-id="22715"></path></svg>