<?xml version="1.0" standalone="no"?><!DOCTYPE svg PUBLIC "-//W3C//DTD SVG 1.1//EN" "http://www.w3.org/Graphics/SVG/1.1/DTD/svg11.dtd"><svg t="1717416680440" class="icon" viewBox="0 0 1117 1024" version="1.1" xmlns="http://www.w3.org/2000/svg" p-id="29278" xmlns:xlink="http://www.w3.org/1999/xlink" width="218.1640625" height="200"><path d="M1077.432223 312.693657A510.695799 510.695799 0 0 0 809.144711 40.217061 494.684191 494.684191 0 0 0 612.72325 0.001862c-67.95624 0-134.050665 13.498157-196.23528 40.215199A510.788889 510.788889 0 0 0 148.200458 312.786748 515.536517 515.536517 0 0 0 108.543803 512.000931c0 2.51345 0.186181 4.933809 0.465453 7.447259H0l161.233161 225.000318 160.395345-225.093409H207.685441a51.758451 51.758451 0 0 0 0.558544-7.354168c0-109.753982 42.077014-212.898522 118.504512-290.443108a398.89382 398.89382 0 0 1 286.067843-120.273236c107.985258 0 209.640346 42.72865 286.067844 120.273236a411.181798 411.181798 0 0 1 118.504512 290.443108 411.181798 411.181798 0 0 1-118.504512 290.443108 398.89382 398.89382 0 0 1-286.067844 120.273236 50.269 50.269 0 0 0-49.896636 50.641363c0 27.927222 22.341778 50.641362 49.896636 50.641362 67.95624 0 134.050665-13.498157 196.328371-40.2152a510.695799 510.695799 0 0 0 268.287512-272.476595A515.536517 515.536517 0 0 0 1117.088878 512.000931c0-69.073329-13.311976-136.191752-39.656655-199.307274z" fill="#2c2c2c" p-id="29279"></path></svg>